<svg xmlns="http://www.w3.org/2000/svg" viewBox="0 0 512 512" role="img" aria-label="NederFlow icon">
  <rect width="512" height="512" rx="96" fill="#0f766e"/>
  <path d="M96 154c0-24 19-43 43-43h234c24 0 43 19 43 43v204c0 24-19 43-43 43H139c-24 0-43-19-43-43V154Z" fill="#ffffff" opacity=".96"/>
  <path d="M150 188h212v38H150v-38Zm0 74h124v38H150v-38Zm0 74h176v38H150v-38Z" fill="#0f766e"/>
  <path d="M318 260c27 0 49 22 49 49s-22 49-49 49-49-22-49-49 22-49 49-49Z" fill="#e65f4f"/>
  <path d="M306 286v48l40-24-40-24Z" fill="#ffffff"/>
</svg>
